<?xml version="1.0" encoding="UTF-8" standalone="no"?>
<!-- Created with Inkscape (http://www.inkscape.org/) -->
<svg xmlns:rdf="http://www.w3.org/1999/02/22-rdf-syntax-ns#" xmlns="http://www.w3.org/2000/svg" xmlns:cc="http://web.resource.org/cc/" xmlns:dc="http://purl.org/dc/elements/1.1/" xmlns:svg="http://www.w3.org/2000/svg" xmlns:inkscape="http://www.inkscape.org/namespaces/inkscape" xmlns:sodipodi="http://sodipodi.sourceforge.net/DTD/sodipodi-0.dtd" xmlns:ns1="http://sozi.baierouge.fr" xmlns:xlink="http://www.w3.org/1999/xlink" id="svg2" viewBox="0 0 349.47 367.09" version="1.0" inkscape:version="0.91 r13725">
  <g id="layer1" transform="translate(-197.31 -342.63)">
    <g id="g2399" transform="translate(2.062 -112.8)">
      <g id="g3206" transform="matrix(1.5714 0 0 1.5714 -167.22 -504.26)">
        <path id="path2434" style="fill-rule:evenodd;fill:#ececec" d="m349.02 610.72l103.99 38.23-128.15 50.75-94.19-52.89 118.35-36.09z"/>
        <path id="path2420" style="fill-rule:evenodd;fill:#b3b3b3" d="m230.89 646.96l95.31 53.03 7.51 144.33-88.72-70.5-14.1-126.86z"/>
        <path id="path2404" style="fill-rule:evenodd;fill:#808080" d="m453.06 648.98l-128.2 50.33 8.72 144.98 111.42-62.42 8.06-132.89z"/>
        <path id="path2396" style="fill:#000000" d="m377.21 723.81c0 11.68-6.01 21.15-13.42 21.15-7.42 0-13.43-9.47-13.43-21.15s6.01-21.15 13.43-21.15c7.41 0 13.42 9.47 13.42 21.15z" transform="matrix(.90106 .43370 -.43370 .90106 348.57 -86.829)"/>
        <path id="path2398" style="fill:#000000" d="m377.21 723.81c0 11.68-6.01 21.15-13.42 21.15-7.42 0-13.43-9.47-13.43-21.15s6.01-21.15 13.43-21.15c7.41 0 13.42 9.47 13.42 21.15z" transform="matrix(.90106 .43370 -.43370 .90106 408.97 -112)"/>
        <path id="path2400" style="fill:#000000" d="m377.21 723.81c0 11.68-6.01 21.15-13.42 21.15-7.42 0-13.43-9.47-13.43-21.15s6.01-21.15 13.43-21.15c7.41 0 13.42 9.47 13.42 21.15z" transform="matrix(.90106 .43370 -.43370 .90106 407.63 -42.866)"/>
        <path id="path2402" style="fill:#000000" d="m377.21 723.81c0 11.68-6.01 21.15-13.42 21.15-7.42 0-13.43-9.47-13.43-21.15s6.01-21.15 13.43-21.15c7.41 0 13.42 9.47 13.42 21.15z" transform="matrix(.90106 .43370 -.43370 .90106 349.24 -15.347)"/>
        <path id="path2408" style="fill:#000000" d="m377.21 723.81c0 11.68-6.01 21.15-13.42 21.15-7.42 0-13.43-9.47-13.43-21.15s6.01-21.15 13.43-21.15c7.41 0 13.42 9.47 13.42 21.15z" transform="matrix(-.64716 .51168 .43938 .85613 217.29 -91.126)"/>
        <path id="path2410" style="fill:#000000" d="m377.21 723.81c0 11.68-6.01 21.15-13.42 21.15-7.42 0-13.43-9.47-13.43-21.15s6.01-21.15 13.43-21.15c7.41 0 13.42 9.47 13.42 21.15z" transform="matrix(-.64716 .51168 .43938 .85613 220.11 -47.455)"/>
        <path id="path2412" style="fill:#000000" d="m377.21 723.81c0 11.68-6.01 21.15-13.42 21.15-7.42 0-13.43-9.47-13.43-21.15s6.01-21.15 13.43-21.15c7.41 0 13.42 9.47 13.42 21.15z" transform="matrix(-.64716 .51168 .43938 .85613 222.79 -5.8276)"/>
        <path id="path2414" style="fill:#000000" d="m377.21 723.81c0 11.68-6.01 21.15-13.42 21.15-7.42 0-13.43-9.47-13.43-21.15s6.01-21.15 13.43-21.15c7.41 0 13.42 9.47 13.42 21.15z" transform="matrix(-.59593 .48508 .40460 .81162 176.71 -76.72)"/>
        <path id="path2416" style="fill:#000000" d="m377.21 723.81c0 11.68-6.01 21.15-13.42 21.15-7.42 0-13.43-9.47-13.43-21.15s6.01-21.15 13.43-21.15c7.41 0 13.42 9.47 13.42 21.15z" transform="matrix(-.54469 .49395 .36981 .82646 188.42 -50.021)"/>
        <path id="path2418" style="fill:#000000" d="m377.21 723.81c0 11.68-6.01 21.15-13.42 21.15-7.42 0-13.43-9.47-13.43-21.15s6.01-21.15 13.43-21.15c7.41 0 13.42 9.47 13.42 21.15z" transform="matrix(-.51054 0.423 .34662 .70776 197.46 99.989)"/>
        <path id="path2422" style="fill:#000000" d="m377.21 723.81c0 11.68-6.01 21.15-13.42 21.15-7.42 0-13.43-9.47-13.43-21.15s6.01-21.15 13.43-21.15c7.41 0 13.42 9.47 13.42 21.15z" transform="matrix(.27703 .61136 .84004 -.12619 -423.56 515.22)"/>
        <path id="path2424" style="fill:#000000" d="m377.21 723.81c0 11.68-6.01 21.15-13.42 21.15-7.42 0-13.43-9.47-13.43-21.15s6.01-21.15 13.43-21.15c7.41 0 13.42 9.47 13.42 21.15z" transform="matrix(.26167 .54005 .79344 -.11147 -324.84 512.72)"/>
        <path id="path2426" style="fill:#000000" d="m377.21 723.81c0 11.68-6.01 21.15-13.42 21.15-7.42 0-13.43-9.47-13.43-21.15s6.01-21.15 13.43-21.15c7.41 0 13.42 9.47 13.42 21.15z" transform="matrix(.29240 -.58759 .88664 .12128 -350.79 774.28)"/>
        <path id="path2428" style="fill:#000000" d="m377.21 723.81c0 11.68-6.01 21.15-13.42 21.15-7.42 0-13.43-9.47-13.43-21.15s6.01-21.15 13.43-21.15c7.41 0 13.42 9.47 13.42 21.15z" transform="matrix(.32314 .58759 .97984 -.12128 -488.1 523.02)"/>
        <path id="path2430" style="fill:#000000" d="m377.21 723.81c0 11.68-6.01 21.15-13.42 21.15-7.42 0-13.43-9.47-13.43-21.15s6.01-21.15 13.43-21.15c7.41 0 13.42 9.47 13.42 21.15z" transform="matrix(.33338 .63513 1.0109 -.13109 -518.73 535.54)"/>
      </g>
    </g>
  </g>
  <metadata>
    <rdf:RDF>
      <cc:Work>
        <dc:format>image/svg+xml</dc:format>
        <dc:type rdf:resource="http://purl.org/dc/dcmitype/StillImage"/>
        <cc:license rdf:resource="http://creativecommons.org/licenses/publicdomain/"/>
        <dc:publisher>
          <cc:Agent rdf:about="http://openclipart.org/">
            <dc:title>Openclipart</dc:title>
          </cc:Agent>
        </dc:publisher>
        <dc:title>dice</dc:title>
        <dc:date>2009-06-18T16:09:18</dc:date>
        <dc:description>A draw of a dice</dc:description>
        <dc:source>https://openclipart.org/detail/26713/dice-by-badaman</dc:source>
        <dc:creator>
          <cc:Agent>
            <dc:title>badaman</dc:title>
          </cc:Agent>
        </dc:creator>
        <dc:subject>
          <rdf:Bag>
            <rdf:li>azar</rdf:li>
            <rdf:li>dado</rdf:li>
            <rdf:li>dice</rdf:li>
            <rdf:li>inkscape</rdf:li>
            <rdf:li>line art</rdf:li>
            <rdf:li>lucky</rdf:li>
            <rdf:li>random</rdf:li>
            <rdf:li>suerte</rdf:li>
            <rdf:li>vectorial</rdf:li>
          </rdf:Bag>
        </dc:subject>
      </cc:Work>
      <cc:License rdf:about="http://creativecommons.org/licenses/publicdomain/">
        <cc:permits rdf:resource="http://creativecommons.org/ns#Reproduction"/>
        <cc:permits rdf:resource="http://creativecommons.org/ns#Distribution"/>
        <cc:permits rdf:resource="http://creativecommons.org/ns#DerivativeWorks"/>
      </cc:License>
    </rdf:RDF>
  </metadata>
</svg>
