<?xml version="1.0" encoding="utf-8"?>
<!-- Generator: Adobe Illustrator 24.0.2, SVG Export Plug-In . SVG Version: 6.00 Build 0)  -->
<svg version="1.1" id="Warstwa_2" xmlns="http://www.w3.org/2000/svg" xmlns:xlink="http://www.w3.org/1999/xlink" x="0px" y="0px"
	 viewBox="0 0 3105.5817871 1227.5532227" style="enable-background:new 0 0 3105.5817871 1227.5532227;" xml:space="preserve">
<style type="text/css">
	.st0{fill:none;stroke:#1D1D1B;stroke-width:11.2805414;stroke-miterlimit:10;}
	.st1{fill:#FFEBE3;stroke:#1D1D1B;stroke-width:11.2805414;stroke-miterlimit:10;}
	.st2{fill:#F7F7F7;stroke:#1D1D1B;stroke-width:11.2805414;stroke-miterlimit:10;}
	.st3{fill:#1D1D1B;}
	.st4{fill:#FFFFFF;stroke:#1D1D1B;stroke-width:11.2805414;stroke-miterlimit:10;}
</style>
<g>
	<line class="st0" x1="0" y1="813.8405151" x2="3105.5817871" y2="813.8405151"/>
	<ellipse class="st1" cx="1051.7193604" cy="612.6517944" rx="76.6342926" ry="88.3597565"/>
	<ellipse class="st1" cx="1784.2557373" cy="612.6517944" rx="76.6342926" ry="88.3597565"/>
	<path class="st1" d="M1739.5296631,813.8403931c18.0706787-43.4404907,28.0389404-91.1798096,28.0389404-141.1638794
		c0-197.4810791-146.3881836-393.947998-343.8692627-393.947998S1078.15979,469.3529053,1078.15979,666.8341675
		c0,51.8493652,9.6009521,101.6870117,27.3151855,147.0062256H1739.5296631z"/>
	<g>
		<g>
			<ellipse class="st1" cx="2071.9433594" cy="825.793335" rx="66.6776428" ry="96.9608002"/>
			<ellipse class="st1" cx="1938.5880127" cy="825.793335" rx="66.6776428" ry="96.9608002"/>
			<ellipse class="st1" cx="1805.2327881" cy="825.793335" rx="66.6776428" ry="96.9608002"/>
		</g>
		<g>
			<ellipse class="st1" cx="1034.8011475" cy="825.793335" rx="66.6776428" ry="96.9608002"/>
			<ellipse class="st1" cx="901.4459229" cy="825.793335" rx="66.6776428" ry="96.9608002"/>
			<ellipse class="st1" cx="768.0906372" cy="825.793335" rx="66.6776428" ry="96.9608002"/>
		</g>
	</g>
	<g>
		<g>
			<ellipse class="st2" cx="1552.0343018" cy="513.2168579" rx="130.3853455" ry="137.0398102"/>
			<circle class="st3" cx="1530.0170898" cy="567.5857544" r="27.9288177"/>
		</g>
		<g>
			<ellipse class="st2" cx="1291.2636719" cy="513.2168579" rx="130.3853455" ry="137.0398102"/>
			<circle class="st3" cx="1310.6968994" cy="567.5857544" r="27.9288177"/>
		</g>
	</g>
	<ellipse class="st1" cx="1422.7324219" cy="801.5507202" rx="199.6942749" ry="253.6036682"/>
	<g>
		<line class="st4" x1="1401.2321777" y1="145.9151917" x2="1410.3637695" y2="329.6891174"/>
		<line class="st4" x1="1478.8509521" y1="217.8267212" x2="1461.729126" y2="312.5673218"/>
		<line class="st4" x1="1589.5718994" y1="101.3985367" x2="1502.0882568" y2="335.3963623"/>
		<line class="st4" x1="1589.5718994" y1="282.8895264" x2="1557.9459229" y2="335.3963623"/>
		<line class="st4" x1="1707.62146" y1="174.4515228" x2="1595.2790527" y2="352.518158"/>
		<line class="st4" x1="1811.0136719" y1="153.905365" x2="1645.5030518" y2="376.177063"/>
		<line class="st4" x1="1745.9509277" y1="335.3963623" x2="1690.0196533" y2="418.7224121"/>
		<line class="st4" x1="1834.9842529" y1="344.5279846" x2="1717.9853516" y2="470.0877991"/>
		<line class="st4" x1="1825.8525391" y1="446.1172791" x2="1738.5551758" y2="500.9070129"/>
		<line class="st4" x1="1296.2185059" y1="174.4515228" x2="1354.4326172" y2="312.5673218"/>
		<line class="st4" x1="1223.038208" y1="207.5536499" x2="1310.6968994" y2="329.6891174"/>
		<line class="st4" x1="1087.3326416" y1="153.905365" x2="1240.2872314" y2="335.3963623"/>
		<line class="st4" x1="1087.3326416" y1="294.3040771" x2="1192.3463135" y2="376.177063"/>
		<line class="st4" x1="975.085022" y1="312.5673218" x2="1150.1125488" y2="424.4296875"/>
		<line class="st4" x1="1062.5987549" y1="424.4296875" x2="1135.2736816" y2="470.0877991"/>
		<line class="st4" x1="917.2561646" y1="407.3078918" x2="1128.3536377" y2="513.2168579"/>
	</g>
</g>
</svg>
